<?xml version="1.0" encoding="utf-8"?>
<!-- Generator: Adobe Illustrator 22.1.0, SVG Export Plug-In . SVG Version: 6.00 Build 0)  -->
<svg version="1.1" id="Ebene_1" xmlns="http://www.w3.org/2000/svg" xmlns:xlink="http://www.w3.org/1999/xlink" x="0px" y="0px"
	 viewBox="0 0 256 256" style="enable-background:new 0 0 256 256;" xml:space="preserve">
<title>horizontal-positive</title>
<path d="M0.03,256.34h256v-256h-256V256.34z M62.49,125.39h97.41c1.04-0.07,2.07-0.27,3.07-0.59c1.49-0.46,2.89-1.16,4.15-2.08
	c1.54-1.09,2.83-2.49,3.79-4.11c1.15-2,1.71-4.29,1.63-6.59c0.11-2.34-0.38-4.68-1.45-6.77c-0.85-1.6-2.08-2.98-3.57-4.02
	c-1.3-0.91-2.75-1.57-4.29-1.94c-1.14-0.29-2.3-0.46-3.48-0.5H62.49V73.55h101.61c3.68,0.1,7.34,0.66,10.88,1.67
	c4.4,1.2,8.54,3.22,12.19,5.96c4.11,3.12,7.47,7.12,9.84,11.7c2.9,5.95,4.28,12.53,4.02,19.15c0.25,6.61-1.2,13.17-4.2,19.06
	c-2.47,4.63-5.9,8.69-10.07,11.88c-3.65,2.76-7.79,4.79-12.19,6.01c-3.41,0.99-6.93,1.55-10.48,1.67H87.69v39.96h-25.2V125.39z"/>
</svg>
