<svg id="Ebene_1" data-name="Ebene 1" xmlns="http://www.w3.org/2000/svg" viewBox="0 0 353.1 56.69"><defs><style>.cls-1{fill:#af1917;}</style></defs><title>PALTRON-horizontal</title><path class="cls-1" d="M135.45,22l-9.11,19.25h-7l13.42-25.78h5.44l13.36,25.78h-6.84Zm55.48,19.28V35.69H168V15.43h-6.49V41.27Zm34-20.27V15.43H195.17V21H206.8V41.27h6.46V21Zm38.89,9.71a9.37,9.37,0,0,1-1.82,1l4.5,9.56h-6.94l-4.14-8.83H241.84v8.83h-6.5V15.43h23.22a10.2,10.2,0,0,1,2.49.37,8.25,8.25,0,0,1,2.79,1.31,7.82,7.82,0,0,1,2.25,2.58,8.64,8.64,0,0,1,.92,4.23,9.37,9.37,0,0,1-.44,3,8,8,0,0,1-1.16,2.23A7.32,7.32,0,0,1,263.78,30.71Zm-3.26-6.79a3,3,0,0,0-.34-1.5,2.56,2.56,0,0,0-.81-.88,3.12,3.12,0,0,0-1-.43,4.17,4.17,0,0,0-.79-.11H241.84v5.87H257.6a2.84,2.84,0,0,0,.7-.13,3.21,3.21,0,0,0,1-.46,3,3,0,0,0,.87-.91A2.66,2.66,0,0,0,260.52,23.92Zm50.64,4.43A12.14,12.14,0,0,1,310,33.64,13,13,0,0,1,306.57,38a17.07,17.07,0,0,1-5.45,3,24.36,24.36,0,0,1-14.54,0,17.07,17.07,0,0,1-5.45-3,13,13,0,0,1-3.41-4.38,12.47,12.47,0,0,1,0-10.59,13,13,0,0,1,3.41-4.38,16.86,16.86,0,0,1,5.45-3,24.36,24.36,0,0,1,14.54,0,16.86,16.86,0,0,1,5.45,3A13,13,0,0,1,310,23.05,12.19,12.19,0,0,1,311.16,28.35Zm-6.83,0a7.9,7.9,0,0,0-.64-3.16,7.35,7.35,0,0,0-2-2.64,9.74,9.74,0,0,0-3.28-1.81,16.36,16.36,0,0,0-9.2,0A9.74,9.74,0,0,0,286,22.55a7.24,7.24,0,0,0-2,2.64,8.1,8.1,0,0,0,0,6.31,7.24,7.24,0,0,0,2,2.64A9.4,9.4,0,0,0,289.25,36a16.13,16.13,0,0,0,9.2,0,9.4,9.4,0,0,0,3.28-1.81,7.35,7.35,0,0,0,2-2.64A7.85,7.85,0,0,0,304.33,28.35ZM353.1,41.27V15.43h-6.5v18l-18.68-18h-6.49V41.27h6.49V23.22L346.6,41.27ZM113.56,19.69a7.82,7.82,0,0,0-2.25-2.58,8.25,8.25,0,0,0-2.79-1.31,10.2,10.2,0,0,0-2.49-.37H82.81V21h22.26a4.07,4.07,0,0,1,.79.11,3,3,0,0,1,1,.43,2.56,2.56,0,0,1,.81.88,2.87,2.87,0,0,1,.34,1.5,2.66,2.66,0,0,1-.37,1.45,3,3,0,0,1-.87.91,3.46,3.46,0,0,1-1,.46,2.84,2.84,0,0,1-.7.13H82.81v14.4h6.5V32.44H106a10.25,10.25,0,0,0,2.4-.36,8.49,8.49,0,0,0,2.79-1.33,8,8,0,0,0,3.26-6.83A8.64,8.64,0,0,0,113.56,19.69Z"/><path class="cls-1" d="M0,56.69H56.69V0H0Zm13.83-29H35.4a2.73,2.73,0,0,0,.68-.13A3.39,3.39,0,0,0,37,27.1a3,3,0,0,0,.84-.91,2.7,2.7,0,0,0,.36-1.46,3.09,3.09,0,0,0-.32-1.5,2.46,2.46,0,0,0-.79-.89,2.93,2.93,0,0,0-.94-.43,4,4,0,0,0-.77-.11H13.83v-5.6h22.5a9.63,9.63,0,0,1,2.41.37,8,8,0,0,1,2.7,1.31,7.62,7.62,0,0,1,2.18,2.6,8.77,8.77,0,0,1,.9,4.24A8.59,8.59,0,0,1,43.59,29a8.11,8.11,0,0,1-2.24,2.63,7.9,7.9,0,0,1-2.7,1.33,9.21,9.21,0,0,1-2.32.37H19.41v8.84H13.83Z"/></svg>