<svg xmlns="http://www.w3.org/2000/svg" viewBox="0 0 353.1 56.69">
  <title>horizontal-positive</title>
  <g>
    <path d="M135.45,22l-9.1,19.25h-7l13.41-25.78h5.44l13.36,25.78h-6.84Zm55.48,19.28V35.69H168V15.43h-6.5V41.27Zm34-20.27V15.43H195.17V21H206.8V41.27h6.46V21Zm38.89,9.71a9.19,9.19,0,0,1-1.83,1l4.5,9.56h-6.94l-4.13-8.82H241.84v8.82h-6.5V15.43h23.22a10.47,10.47,0,0,1,2.49.37,8.35,8.35,0,0,1,2.79,1.31,7.76,7.76,0,0,1,2.25,2.58,8.58,8.58,0,0,1,.92,4.23,9.2,9.2,0,0,1-.44,3,7.81,7.81,0,0,1-1.16,2.23A7.26,7.26,0,0,1,263.78,30.71Zm-3.27-6.79a3,3,0,0,0-.33-1.49,2.57,2.57,0,0,0-.81-.89,3,3,0,0,0-1-.42,3.89,3.89,0,0,0-.79-.11H241.84v5.87H257.6a3.06,3.06,0,0,0,.7-.13,3.35,3.35,0,0,0,1-.46,3,3,0,0,0,.87-.9A2.64,2.64,0,0,0,260.52,23.92Zm50.65,4.43a12.23,12.23,0,0,1-1.18,5.3A13,13,0,0,1,306.57,38a16.89,16.89,0,0,1-5.44,3,24.44,24.44,0,0,1-14.54,0,16.91,16.91,0,0,1-5.45-3,12.93,12.93,0,0,1-3.41-4.37,12.47,12.47,0,0,1,0-10.59,12.94,12.94,0,0,1,3.41-4.37,16.89,16.89,0,0,1,5.45-3,24.42,24.42,0,0,1,14.54,0,16.87,16.87,0,0,1,5.44,3A13,13,0,0,1,310,23,12.23,12.23,0,0,1,311.16,28.35Zm-6.83,0a7.88,7.88,0,0,0-.65-3.16,7.37,7.37,0,0,0-2-2.64,9.57,9.57,0,0,0-3.29-1.81,16.22,16.22,0,0,0-9.19,0A9.57,9.57,0,0,0,286,22.55a7.35,7.35,0,0,0-2,2.64,8,8,0,0,0,0,6.31,7.34,7.34,0,0,0,2,2.64A9.56,9.56,0,0,0,289.25,36a16.22,16.22,0,0,0,9.19,0,9.56,9.56,0,0,0,3.29-1.81,7.36,7.36,0,0,0,2-2.64A7.88,7.88,0,0,0,304.33,28.35ZM353.1,41.27V15.43h-6.5V33.48L327.92,15.43h-6.5V41.27h6.5V23.22L346.6,41.27ZM113.56,19.69a7.75,7.75,0,0,0-2.25-2.58,8.35,8.35,0,0,0-2.79-1.31,10.46,10.46,0,0,0-2.49-.37H82.81V21h22.26a3.88,3.88,0,0,1,.79.11,3,3,0,0,1,1,.42,2.58,2.58,0,0,1,.81.89,3,3,0,0,1,.33,1.49,2.64,2.64,0,0,1-.37,1.46,3,3,0,0,1-.87.9,3.34,3.34,0,0,1-1,.46,3.07,3.07,0,0,1-.7.13H82.81v14.4h6.5V32.44H106a10,10,0,0,0,2.4-.37,8.37,8.37,0,0,0,2.79-1.33,8.16,8.16,0,0,0,2.31-2.62,8.33,8.33,0,0,0,1-4.21A8.58,8.58,0,0,0,113.56,19.69Z"/>
    <path d="M0,56.69H56.69V0H0Zm13.83-29H35.4a2.88,2.88,0,0,0,.68-.13A3.19,3.19,0,0,0,37,27.1a3,3,0,0,0,.84-.91,2.73,2.73,0,0,0,.36-1.46,3,3,0,0,0-.32-1.5,2.54,2.54,0,0,0-.79-.89,2.82,2.82,0,0,0-.95-.43,3.63,3.63,0,0,0-.77-.11H13.83V16.21h22.5a9.81,9.81,0,0,1,2.41.37,8,8,0,0,1,2.7,1.32,7.72,7.72,0,0,1,2.18,2.59,8.86,8.86,0,0,1,.89,4.24,8.59,8.59,0,0,1-.93,4.22,8.11,8.11,0,0,1-2.23,2.63,8,8,0,0,1-2.7,1.33,9.4,9.4,0,0,1-2.32.37H19.41v8.85H13.83Z"/>
  </g>
</svg>
